ffmpeg started on 2025-06-05 at 19:00:22
Report written to "D:\Convert\FFMetrics\reports\ssim_report-6.txt"
Log level: 32
Command line:
ffmpeg -hide_banner -nostdin -i "G:\\\xc0\xed\xe8\xec\xe5\\\xce\xed\xe3\xee\xe8\xed\xe3\xe8\\!_36_\xce\xf1\xe5\xed\xfc_2024\\DreamCast\\\xca\xee\xec\xef\xe0\xed\xe8\xff \xab\xcc\xe0\xe3\xe8-\xcb\xfe\xec\xfc\xe5\xf0\xbb\\[DC] Kabushikigaisha Magilumiere - 02_Telegram_HEVC.mkv" -i "G:\\\xc0\xed\xe8\xec\xe5\\\xce\xed\xe3\xee\xe8\xed\xe3\xe8\\!_36_\xce\xf1\xe5\xed\xfc_2024\\DreamCast\\\xca\xee\xec\xef\xe0\xed\xe8\xff \xab\xcc\xe0\xe3\xe8-\xcb\xfe\xec\xfc\xe5\xf0\xbb\\[DC] Kabushikigaisha Magilumiere - 02_Telegram.mp4" -lavfi "[0:v]settb=AVTB,setpts=PTS-STARTPTS,format=pix_fmts=yuv420p10,fps=24000/1001,scale=1920:1080:flags=bicubic[main];[1:v]settb=AVTB,setpts=PTS-STARTPTS,format=pix_fmts=yuv420p,fps=24000/1001,scale=1920:1080:flags=bicubic[ref];[main][ref]ssim=eof_action=endall:stats_file='D\\:/Convert/FFMetrics/logs/ssim_logfile-6.txt'" -f null -
Input #0, matroska,webm, from 'G:\Аниме\Онгоинги\!_36_Осень_2024\DreamCast\Компания «Маги-Люмьер»\[DC] Kabushikigaisha Magilumiere - 02_Telegram_HEVC.mkv':
  Metadata:
    COMPATIBLE_BRANDS: isomiso2avc1mp41
    MAJOR_BRAND     : isom
    MINOR_VERSION   : 512
    ENCODER         : Lavf61.7.100
  Duration: 00:24:06.57, start: -0.021000, bitrate: 1837 kb/s
  Stream #0:0: Video: hevc (Main 10), yuv420p10le(tv, bt709, progressive), 1920x1080 [SAR 1:1 DAR 16:9], 23.98 fps, 23.98 tbr, 1k tbn (default)
      Metadata:
        HANDLER_NAME    : VideoHandler
        VENDOR_ID       : [0][0][0][0]
        ENCODER         : Lavc61.19.100 libx265
        BPS             : 1639630
        DURATION        : 00:24:06.444708333
        NUMBER_OF_FRAMES: 34680
        NUMBER_OF_BYTES : 296454265
        _STATISTICS_WRITING_APP: mkvpropedit v66.0.0 ('Josie') 64-bit
        _STATISTICS_WRITING_DATE_UTC: 2025-05-30 17:05:41
        _STATISTICS_TAGS: BPS DURATION NUMBER_OF_FRAMES NUMBER_OF_BYTES
  Stream #0:1: Audio: aac (LC), 48000 Hz, stereo, fltp (default)
      Metadata:
        HANDLER_NAME    : SoundHandler
        VENDOR_ID       : [0][0][0][0]
        ENCODER         : Lavc61.19.100 aac
        BPS             : 193804
        DURATION        : 00:24:06.570000000
        NUMBER_OF_FRAMES: 67809
        NUMBER_OF_BYTES : 35043904
        _STATISTICS_WRITING_APP: mkvpropedit v66.0.0 ('Josie') 64-bit
        _STATISTICS_WRITING_DATE_UTC: 2025-05-30 17:05:41
        _STATISTICS_TAGS: BPS DURATION NUMBER_OF_FRAMES NUMBER_OF_BYTES
Input #1, mov,mp4,m4a,3gp,3g2,mj2, from 'G:\Аниме\Онгоинги\!_36_Осень_2024\DreamCast\Компания «Маги-Люмьер»\[DC] Kabushikigaisha Magilumiere - 02_Telegram.mp4':
  Metadata:
    major_brand     : isom
    minor_version   : 512
    compatible_brands: isomiso2avc1mp41
    encoder         : Lavf60.16.100
  Duration: 00:24:06.51, start: 0.000000, bitrate: 3906 kb/s
  Stream #1:0[0x1](und): Video: h264 (High) (avc1 / 0x31637661), yuv420p(tv, bt709, progressive), 1920x1080 [SAR 1:1 DAR 16:9], 3758 kb/s, 23.98 fps, 23.98 tbr, 24k tbn (default)
      Metadata:
        handler_name    : VideoHandler
        vendor_id       : [0][0][0][0]
        encoder         : Lavc60.31.102 h264_qsv
  Stream #1:1[0x2](und): Audio: aac (HE-AACv2) (mp4a / 0x6134706D), 48000 Hz, stereo, fltp, 144 kb/s (default)
      Metadata:
        handler_name    : SoundHandler
        vendor_id       : [0][0][0][0]
Stream mapping:
  Stream #0:0 (hevc) -> settb:default
  Stream #1:0 (h264) -> settb:default
  ssim:default -> Stream #0:0 (wrapped_avframe)
  Stream #0:1 -> #0:1 (aac (native) -> pcm_s16le (native))
Output #0, null, to 'pipe:':
  Metadata:
    COMPATIBLE_BRANDS: isomiso2avc1mp41
    MAJOR_BRAND     : isom
    MINOR_VERSION   : 512
    encoder         : Lavf61.7.100
  Stream #0:0: Video: wrapped_avframe, yuv420p10le(tv, bt709, progressive), 1920x1080 [SAR 1:1 DAR 16:9], q=2-31, 200 kb/s, 23.98 fps, 23.98 tbn
      Metadata:
        encoder         : Lavc61.19.100 wrapped_avframe
  Stream #0:1: Audio: pcm_s16le, 48000 Hz, stereo, s16, 1536 kb/s (default)
      Metadata:
        HANDLER_NAME    : SoundHandler
        VENDOR_ID       : [0][0][0][0]
        _STATISTICS_TAGS: BPS DURATION NUMBER_OF_FRAMES NUMBER_OF_BYTES
        BPS             : 193804
        DURATION        : 00:24:06.570000000
        NUMBER_OF_FRAMES: 67809
        NUMBER_OF_BYTES : 35043904
        _STATISTICS_WRITING_APP: mkvpropedit v66.0.0 ('Josie') 64-bit
        _STATISTICS_WRITING_DATE_UTC: 2025-05-30 17:05:41
        encoder         : Lavc61.19.100 pcm_s16le
frame=  181 fps=0.0 q=-0.0 size=N/A time=00:00:07.54 bitrate=N/A speed=14.6x    frame=  410 fps=395 q=-0.0 size=N/A time=00:00:17.10 bitrate=N/A speed=16.5x    frame=  603 fps=387 q=-0.0 size=N/A time=00:00:25.15 bitrate=N/A speed=16.1x    frame=  783 fps=379 q=-0.0 size=N/A time=00:00:32.65 bitrate=N/A speed=15.8x    frame=  990 fps=382 q=-0.0 size=N/A time=00:00:41.29 bitrate=N/A speed=15.9x    frame= 1147 fps=370 q=-0.0 size=N/A time=00:00:47.83 bitrate=N/A speed=15.4x    frame= 1323 fps=366 q=-0.0 size=N/A time=00:00:55.18 bitrate=N/A speed=15.2x    frame= 1465 fps=355 q=-0.0 size=N/A time=00:01:01.10 bitrate=N/A speed=14.8x    frame= 1652 fps=355 q=-0.0 size=N/A time=00:01:08.90 bitrate=N/A speed=14.8x    frame= 1862 fps=361 q=-0.0 size=N/A time=00:01:17.66 bitrate=N/A speed=15.1x    frame= 2054 fps=362 q=-0.0 size=N/A time=00:01:25.66 bitrate=N/A speed=15.1x    frame= 2274 fps=367 q=-0.0 size=N/A time=00:01:34.84 bitrate=N/A speed=15.3x    frame= 2430 fps=362 q=-0.0 size=N/A time=00:01:41.35 bitrate=N/A speed=15.1x    frame= 2577 fps=356 q=-0.0 size=N/A time=00:01:47.48 bitrate=N/A speed=14.9x    frame= 2734 fps=354 q=-0.0 size=N/A time=00:01:54.03 bitrate=N/A speed=14.7x    frame= 2948 fps=357 q=-0.0 size=N/A time=00:02:02.95 bitrate=N/A speed=14.9x    frame= 3138 fps=358 q=-0.0 size=N/A time=00:02:10.88 bitrate=N/A speed=14.9x    frame= 3319 fps=358 q=-0.0 size=N/A time=00:02:18.42 bitrate=N/A speed=14.9x    frame= 3539 fps=361 q=-0.0 size=N/A time=00:02:27.60 bitrate=N/A speed=15.1x    frame= 3778 fps=366 q=-0.0 size=N/A time=00:02:37.57 bitrate=N/A speed=15.3x    frame= 4023 fps=371 q=-0.0 size=N/A time=00:02:47.79 bitrate=N/A speed=15.5x    frame= 4237 fps=373 q=-0.0 size=N/A time=00:02:56.71 bitrate=N/A speed=15.6x    frame= 4483 fps=378 q=-0.0 size=N/A time=00:03:06.97 bitrate=N/A speed=15.8x    frame= 4715 fps=381 q=-0.0 size=N/A time=00:03:16.65 bitrate=N/A speed=15.9x    frame= 4955 fps=384 q=-0.0 size=N/A time=00:03:26.66 bitrate=N/A speed=  16x    frame= 5203 fps=388 q=-0.0 size=N/A time=00:03:37.00 bitrate=N/A speed=16.2x    frame= 5425 fps=390 q=-0.0 size=N/A time=00:03:46.26 bitrate=N/A speed=16.3x    frame= 5667 fps=392 q=-0.0 size=N/A time=00:03:56.36 bitrate=N/A speed=16.4x    frame= 5903 fps=394 q=-0.0 size=N/A time=00:04:06.20 bitrate=N/A speed=16.5x    frame= 6137 fps=397 q=-0.0 size=N/A time=00:04:15.96 bitrate=N/A speed=16.5x    frame= 6400 fps=400 q=-0.0 size=N/A time=00:04:26.93 bitrate=N/A speed=16.7x    frame= 6603 fps=400 q=-0.0 size=N/A time=00:04:35.40 bitrate=N/A speed=16.7x    frame= 6855 fps=403 q=-0.0 size=N/A time=00:04:45.91 bitrate=N/A speed=16.8x    frame= 7099 fps=405 q=-0.0 size=N/A time=00:04:56.08 bitrate=N/A speed=16.9x    frame= 7343 fps=407 q=-0.0 size=N/A time=00:05:06.26 bitrate=N/A speed=  17x    frame= 7555 fps=407 q=-0.0 size=N/A time=00:05:15.10 bitrate=N/A speed=  17x    frame= 7819 fps=410 q=-0.0 size=N/A time=00:05:26.11 bitrate=N/A speed=17.1x    frame= 8056 fps=411 q=-0.0 size=N/A time=00:05:36.00 bitrate=N/A speed=17.1x    frame= 8246 fps=410 q=-0.0 size=N/A time=00:05:43.92 bitrate=N/A speed=17.1x    frame= 8493 fps=412 q=-0.0 size=N/A time=00:05:54.22 bitrate=N/A speed=17.2x    frame= 8713 fps=412 q=-0.0 size=N/A time=00:06:03.40 bitrate=N/A speed=17.2x    frame= 8940 fps=413 q=-0.0 size=N/A time=00:06:12.87 bitrate=N/A speed=17.2x    frame= 9188 fps=414 q=-0.0 size=N/A time=00:06:23.21 bitrate=N/A speed=17.3x    frame= 9446 fps=416 q=-0.0 size=N/A time=00:06:33.97 bitrate=N/A speed=17.4x    frame= 9687 fps=417 q=-0.0 size=N/A time=00:06:44.02 bitrate=N/A speed=17.4x    frame= 9928 fps=418 q=-0.0 size=N/A time=00:06:54.08 bitrate=N/A speed=17.5x    frame=10142 fps=418 q=-0.0 size=N/A time=00:07:03.00 bitrate=N/A speed=17.4x    frame=10372 fps=419 q=-0.0 size=N/A time=00:07:12.59 bitrate=N/A speed=17.5x    frame=10611 fps=420 q=-0.0 size=N/A time=00:07:22.56 bitrate=N/A speed=17.5x    frame=10860 fps=421 q=-0.0 size=N/A time=00:07:32.95 bitrate=N/A speed=17.6x    frame=11098 fps=422 q=-0.0 size=N/A time=00:07:42.87 bitrate=N/A speed=17.6x    frame=11349 fps=423 q=-0.0 size=N/A time=00:07:53.34 bitrate=N/A speed=17.6x    frame=11595 fps=424 q=-0.0 size=N/A time=00:08:03.60 bitrate=N/A speed=17.7x    frame=11846 fps=425 q=-0.0 size=N/A time=00:08:14.07 bitrate=N/A speed=17.7x    frame=12070 fps=425 q=-0.0 size=N/A time=00:08:23.41 bitrate=N/A speed=17.7x    frame=12299 fps=426 q=-0.0 size=N/A time=00:08:32.97 bitrate=N/A speed=17.8x    frame=12542 fps=426 q=-0.0 size=N/A time=00:08:43.10 bitrate=N/A speed=17.8x    frame=12798 fps=428 q=-0.0 size=N/A time=00:08:53.78 bitrate=N/A speed=17.8x    frame=13028 fps=428 q=-0.0 size=N/A time=00:09:03.37 bitrate=N/A speed=17.8x    frame=13256 fps=428 q=-0.0 size=N/A time=00:09:12.88 bitrate=N/A speed=17.9x    frame=13498 fps=429 q=-0.0 size=N/A time=00:09:22.97 bitrate=N/A speed=17.9x    frame=13709 fps=428 q=-0.0 size=N/A time=00:09:31.77 bitrate=N/A speed=17.9x    frame=13957 fps=429 q=-0.0 size=N/A time=00:09:42.12 bitrate=N/A speed=17.9x    frame=14202 fps=430 q=-0.0 size=N/A time=00:09:52.34 bitrate=N/A speed=17.9x    frame=14447 fps=431 q=-0.0 size=N/A time=00:10:02.56 bitrate=N/A speed=  18x    frame=14672 fps=431 q=-0.0 size=N/A time=00:10:11.94 bitrate=N/A speed=  18x    frame=14908 fps=431 q=-0.0 size=N/A time=00:10:21.78 bitrate=N/A speed=  18x    frame=15151 fps=432 q=-0.0 size=N/A time=00:10:31.92 bitrate=N/A speed=  18x    frame=15380 fps=432 q=-0.0 size=N/A time=00:10:41.47 bitrate=N/A speed=  18x    frame=15631 fps=433 q=-0.0 size=N/A time=00:10:51.94 bitrate=N/A speed=  18x    frame=15854 fps=433 q=-0.0 size=N/A time=00:11:01.24 bitrate=N/A speed=  18x    frame=16096 fps=433 q=-0.0 size=N/A time=00:11:11.33 bitrate=N/A speed=18.1x    frame=16300 fps=433 q=-0.0 size=N/A time=00:11:19.84 bitrate=N/A speed=  18x    frame=16478 fps=431 q=-0.0 size=N/A time=00:11:27.26 bitrate=N/A speed=  18x    frame=16680 fps=431 q=-0.0 size=N/A time=00:11:35.69 bitrate=N/A speed=  18x    frame=16869 fps=430 q=-0.0 size=N/A time=00:11:43.57 bitrate=N/A speed=17.9x    frame=17062 fps=429 q=-0.0 size=N/A time=00:11:51.62 bitrate=N/A speed=17.9x    frame=17252 fps=429 q=-0.0 size=N/A time=00:11:59.55 bitrate=N/A speed=17.9x    frame=17458 fps=428 q=-0.0 size=N/A time=00:12:08.14 bitrate=N/A speed=17.9x    frame=17684 fps=428 q=-0.0 size=N/A time=00:12:17.57 bitrate=N/A speed=17.9x    frame=17938 fps=429 q=-0.0 size=N/A time=00:12:28.16 bitrate=N/A speed=17.9x    frame=18154 fps=429 q=-0.0 size=N/A time=00:12:37.17 bitrate=N/A speed=17.9x    frame=18367 fps=429 q=-0.0 size=N/A time=00:12:46.05 bitrate=N/A speed=17.9x    frame=18591 fps=429 q=-0.0 size=N/A time=00:12:55.39 bitrate=N/A speed=17.9x    frame=18805 fps=429 q=-0.0 size=N/A time=00:13:04.32 bitrate=N/A speed=17.9x    frame=19027 fps=429 q=-0.0 size=N/A time=00:13:13.58 bitrate=N/A speed=17.9x    frame=19243 fps=429 q=-0.0 size=N/A time=00:13:22.59 bitrate=N/A speed=17.9x    frame=19428 fps=428 q=-0.0 size=N/A time=00:13:30.30 bitrate=N/A speed=17.8x    frame=19660 fps=428 q=-0.0 size=N/A time=00:13:39.98 bitrate=N/A speed=17.9x    frame=19884 fps=428 q=-0.0 size=N/A time=00:13:49.32 bitrate=N/A speed=17.9x    frame=20079 fps=428 q=-0.0 size=N/A time=00:13:57.46 bitrate=N/A speed=17.8x    frame=20309 fps=428 q=-0.0 size=N/A time=00:14:07.05 bitrate=N/A speed=17.8x    frame=20549 fps=428 q=-0.0 size=N/A time=00:14:17.10 bitrate=N/A speed=17.9x    frame=20799 fps=429 q=-0.0 size=N/A time=00:14:27.49 bitrate=N/A speed=17.9x    frame=21046 fps=429 q=-0.0 size=N/A time=00:14:37.79 bitrate=N/A speed=17.9x    frame=21250 fps=429 q=-0.0 size=N/A time=00:14:46.30 bitrate=N/A speed=17.9x    frame=21463 fps=429 q=-0.0 size=N/A time=00:14:55.18 bitrate=N/A speed=17.9x    frame=21655 fps=428 q=-0.0 size=N/A time=00:15:03.19 bitrate=N/A speed=17.9x    frame=21826 fps=427 q=-0.0 size=N/A time=00:15:10.32 bitrate=N/A speed=17.8x    frame=22015 fps=427 q=-0.0 size=N/A time=00:15:18.20 bitrate=N/A speed=17.8x    frame=22201 fps=426 q=-0.0 size=N/A time=00:15:25.96 bitrate=N/A speed=17.8x    frame=22406 fps=426 q=-0.0 size=N/A time=00:15:34.51 bitrate=N/A speed=17.7x    frame=22666 fps=426 q=-0.0 size=N/A time=00:15:45.36 bitrate=N/A speed=17.8x    frame=22865 fps=426 q=-0.0 size=N/A time=00:15:53.66 bitrate=N/A speed=17.8x    frame=23063 fps=425 q=-0.0 size=N/A time=00:16:01.91 bitrate=N/A speed=17.7x    frame=23300 fps=426 q=-0.0 size=N/A time=00:16:11.80 bitrate=N/A speed=17.8x    frame=23517 fps=426 q=-0.0 size=N/A time=00:16:20.85 bitrate=N/A speed=17.8x    frame=23763 fps=426 q=-0.0 size=N/A time=00:16:31.11 bitrate=N/A speed=17.8x    frame=24012 fps=427 q=-0.0 size=N/A time=00:16:41.50 bitrate=N/A speed=17.8x    frame=24205 fps=426 q=-0.0 size=N/A time=00:16:49.55 bitrate=N/A speed=17.8x    frame=24379 fps=425 q=-0.0 size=N/A time=00:16:56.80 bitrate=N/A speed=17.7x    frame=24614 fps=426 q=-0.0 size=N/A time=00:17:06.60 bitrate=N/A speed=17.8x    frame=24859 fps=426 q=-0.0 size=N/A time=00:17:16.82 bitrate=N/A speed=17.8x    frame=25091 fps=426 q=-0.0 size=N/A time=00:17:26.50 bitrate=N/A speed=17.8x    frame=25288 fps=426 q=-0.0 size=N/A time=00:17:34.72 bitrate=N/A speed=17.8x    frame=25443 fps=425 q=-0.0 size=N/A time=00:17:41.18 bitrate=N/A speed=17.7x    frame=25682 fps=425 q=-0.0 size=N/A time=00:17:51.15 bitrate=N/A speed=17.7x    frame=25903 fps=425 q=-0.0 size=N/A time=00:18:00.37 bitrate=N/A speed=17.7x    frame=26135 fps=425 q=-0.0 size=N/A time=00:18:10.04 bitrate=N/A speed=17.7x    frame=26376 fps=426 q=-0.0 size=N/A time=00:18:20.09 bitrate=N/A speed=17.8x    frame=26585 fps=426 q=-0.0 size=N/A time=00:18:28.81 bitrate=N/A speed=17.7x    frame=26786 fps=425 q=-0.0 size=N/A time=00:18:37.19 bitrate=N/A speed=17.7x    frame=27014 fps=425 q=-0.0 size=N/A time=00:18:46.70 bitrate=N/A speed=17.7x    frame=27254 fps=426 q=-0.0 size=N/A time=00:18:56.71 bitrate=N/A speed=17.8x    frame=27485 fps=426 q=-0.0 size=N/A time=00:19:06.35 bitrate=N/A speed=17.8x    frame=27667 fps=425 q=-0.0 size=N/A time=00:19:13.94 bitrate=N/A speed=17.7x    frame=27850 fps=425 q=-0.0 size=N/A time=00:19:21.57 bitrate=N/A speed=17.7x    frame=28060 fps=425 q=-0.0 size=N/A time=00:19:30.33 bitrate=N/A speed=17.7x    frame=28283 fps=425 q=-0.0 size=N/A time=00:19:39.63 bitrate=N/A speed=17.7x    frame=28505 fps=425 q=-0.0 size=N/A time=00:19:48.89 bitrate=N/A speed=17.7x    frame=28710 fps=425 q=-0.0 size=N/A time=00:19:57.44 bitrate=N/A speed=17.7x    frame=28930 fps=424 q=-0.0 size=N/A time=00:20:06.62 bitrate=N/A speed=17.7x    frame=29122 fps=424 q=-0.0 size=N/A time=00:20:14.63 bitrate=N/A speed=17.7x    frame=29306 fps=424 q=-0.0 size=N/A time=00:20:22.30 bitrate=N/A speed=17.7x    frame=29518 fps=424 q=-0.0 size=N/A time=00:20:31.14 bitrate=N/A speed=17.7x    frame=29766 fps=424 q=-0.0 size=N/A time=00:20:41.49 bitrate=N/A speed=17.7x    frame=29998 fps=424 q=-0.0 size=N/A time=00:20:51.16 bitrate=N/A speed=17.7x    frame=30236 fps=424 q=-0.0 size=N/A time=00:21:01.09 bitrate=N/A speed=17.7x    frame=30458 fps=425 q=-0.0 size=N/A time=00:21:10.35 bitrate=N/A speed=17.7x    frame=30674 fps=424 q=-0.0 size=N/A time=00:21:19.36 bitrate=N/A speed=17.7x    frame=30901 fps=425 q=-0.0 size=N/A time=00:21:28.82 bitrate=N/A speed=17.7x    frame=31108 fps=424 q=-0.0 size=N/A time=00:21:37.46 bitrate=N/A speed=17.7x    frame=31245 fps=423 q=-0.0 size=N/A time=00:21:43.17 bitrate=N/A speed=17.7x    frame=31423 fps=423 q=-0.0 size=N/A time=00:21:50.60 bitrate=N/A speed=17.6x    frame=31650 fps=423 q=-0.0 size=N/A time=00:22:00.06 bitrate=N/A speed=17.6x    frame=31835 fps=422 q=-0.0 size=N/A time=00:22:07.78 bitrate=N/A speed=17.6x    frame=31934 fps=421 q=-0.0 size=N/A time=00:22:11.91 bitrate=N/A speed=17.6x    frame=32070 fps=420 q=-0.0 size=N/A time=00:22:17.58 bitrate=N/A speed=17.5x    frame=32250 fps=419 q=-0.0 size=N/A time=00:22:25.09 bitrate=N/A speed=17.5x    frame=32494 fps=420 q=-0.0 size=N/A time=00:22:35.27 bitrate=N/A speed=17.5x    frame=32716 fps=420 q=-0.0 size=N/A time=00:22:44.52 bitrate=N/A speed=17.5x    frame=32932 fps=420 q=-0.0 size=N/A time=00:22:53.53 bitrate=N/A speed=17.5x    frame=33173 fps=420 q=-0.0 size=N/A time=00:23:03.59 bitrate=N/A speed=17.5x    frame=33398 fps=420 q=-0.0 size=N/A time=00:23:12.97 bitrate=N/A speed=17.5x    frame=33660 fps=421 q=-0.0 size=N/A time=00:23:23.90 bitrate=N/A speed=17.5x    frame=33882 fps=421 q=-0.0 size=N/A time=00:23:33.16 bitrate=N/A speed=17.5x    frame=34111 fps=421 q=-0.0 size=N/A time=00:23:42.71 bitrate=N/A speed=17.6x    frame=34362 fps=421 q=-0.0 size=N/A time=00:23:53.18 bitrate=N/A speed=17.6x    frame=34609 fps=422 q=-0.0 size=N/A time=00:24:03.48 bitrate=N/A speed=17.6x    [Parsed_ssim_10 @ 000001a274d38480] SSIM Y:0.993927 (22.166092) U:0.993579 (21.924210) V:0.993411 (21.812074) All:0.993783 (22.064361)
[out#0/null @ 000001a2724147c0] video:14902KiB audio:271236KiB subtitle:0KiB other streams:0KiB global headers:0KiB muxing overhead: unknown
frame=34680 fps=422 q=-0.0 Lsize=N/A time=00:24:06.44 bitrate=N/A speed=17.6x    
